<?xml version="1.0" encoding="UTF-8"?>
<svg version="1.1" viewBox="0 0 2048 678" width="4222" height="1399" xmlns="http://www.w3.org/2000/svg">
    <path transform="translate(204,10)"
          d="m0 0h15l14 3 16 8 9 7 7 7 7 11 5 12 2 9v14l-3 13-8 16-7 10-3 4h-2l-1 3-16 14-2 1 3 10 2 7h9l68 8 63 7 53 6 103 12 12 4 9 6 8 9 5 14v12l-3 10-6 10-7 8-10 6-14 6-16 6-19 7-12 5-31 12-33 13-4-2-13-16v-2l14-6 19-7 12-5 80-31 10-5 6-7 1-3v-9l-3-5-4-3-16-3-167-19-111-13h-7l-11 12-9 11-11 12-9 11-10 11-7 8-24 28-2 3h-2l-2 4-10 11-9 11-11 12-9 11-9 10-7 8-24 28-10 11-9 11-9 10-3 6v10l5 6 9 3 10-1 16-6 62-24 28-11 8-3h3v25l-13 6-21 8-37 14-12 5-19 7-9 4-4 1h-18l-8-2-11-6-8-8-5-10-2-6v-14l4-11 5-8 11-13 13-15 9-10 9-11 11-12 9-11 10-11 9-11 11-12 9-11 11-12 9-11 10-11 9-11 11-12 9-11 11-12 9-11 10-11 4-5-3-10-8-21 1-5 26-20 9-10 8-14 2-8v-12l-4-11-7-9-8-6-10-5-5-1h-16l-10 3-10 6-4 2-2 4-6 9-3 9v17l1 7-3 7-5 4-6 1-7-3-4-6-2-9v-18l3-12 5-12 11-14 8-7 9-6 15-6z"/>
    <path transform="translate(279,288)"
          d="m0 0h38l20 4 12 4 13 7 11 9 8 10 8 16 2 9h-30l-7-14-7-8-10-6-13-4-9-2h-33l-16 4-16 8-8 9-4 8-2 7v16l3 10 8 11 13 9 11 5 24 8 37 10 25 9 19 10 10 8 8 9 5 8 4 12 2 14-1 15-4 16-7 14-9 10-9 8-11 7-11 5-13 4-16 3-9 1h-25l-24-3-16-5-11-5-10-6-12-10-9-13-6-13-3-10 1-5h29l3 2 5 14 7 10 8 6 10 5 13 4 14 2h29l17-3 13-5 11-7 8-8 5-10 2-7 1-12-2-11-5-10-10-9-15-8-21-8-14-4-30-8-26-9-15-8-13-10-8-9-7-12-3-10-1-13 1-13 3-12 4-9 7-11 9-9 14-9 10-5 16-5z"/>
    <path transform="translate(1291,384)"
          d="m0 0 21 2 15 5 9 5 13 10 8 8 9 13 7 14 4 13 2 11v24l-2 11-5 16-9 16-11 13-10 9-11 7-12 5-14 3-14 1-18-2-16-6-12-7-10-9-7-7-2-1v128h-28v-278h28v28l8-7 7-7 14-9 12-5 12-3zm-7 28-12 2-13 5-11 8-8 8-7 11-5 12-2 10v18l3 13 8 16 9 10 12 9 11 5 8 2h23l10-3 12-6 12-10 9-12 6-14 2-9v-20l-3-12-7-14-8-10-9-8-15-8-7-2-9-1z"/>
    <path transform="translate(1061,384)"
          d="m0 0 21 2 12 4 12 6 13 10 7 7 10 14 7 14 5 17 1 7v24l-3 15-6 16-10 16-14 15-13 9-14 6-14 3-14 1-18-2-16-6-12-7-10-9-8-8-1 128h-28v-278h28l1 28 15-15 13-8 12-5 12-3zm-7 28-12 2-13 5-11 8-8 8-8 12-5 15-1 5v20l4 15 5 10 7 9 11 10 16 8 8 2h23l10-3 12-6 10-8 11-14 6-14 2-11v-16l-3-13-5-12-10-13-8-7-10-6-13-5-9-1z"/>
    <path transform="translate(560,381)"
          d="m0 0 3 1 12 31 22 56 13 33 7 18v3l2-1 12-31 13-33 16-41 11-28 1-1h31l-3 9-19 45-6 15-5 11-13 31-16 38-17 40-4 10-3-2-24-60-7-18-5-12-11-27-8-20-1-1-8 20-11 27-11 28-13 33-13 32h-2l-10-24-7-17-5-11-19-45-42-98v-4h30l3 5 17 44 11 28 11 29 5 12 6 16 2 1 1-5 11-28 13-33 8-21 5-12 13-33z"/>
    <path transform="translate(1862,383)"
          d="m0 0 15 1 14 3 11 4 16 9 13 11v2h2l10 13 6 11 5 12 3 15v23l-1 1h-155l5 15 7 12 9 9 14 9 10 4 11 2h16l10-2 12-5 11-7 7-7 3-4h32l-1 5-6 10-8 10-8 8-10 7-10 6-16 6-9 2-13 1-14-1-18-4-17-7-14-10-14-14-9-14-6-14-3-13-1-18 1-14 4-15 6-13 7-11 9-10 7-7 10-7 15-8 15-4zm-10 29-13 4-12 7-9 8-9 12-7 15v5l1 1h123l1-3-5-13-7-11-9-10-8-6-12-6-10-3z"/>
    <path transform="translate(1500,384)"
          d="m0 0 16 1 15 4 14 7 13 10 9 9v2h2v-29h28l1 1v175l-2 2h-26l-1-1v-28h-2l-2 4-10 10-13 9-14 6-13 3-15 1-17-2-15-5-11-6-11-9-9-9-9-13-6-12-5-17-1-7v-26l4-18 5-12 7-12 8-10 9-9 13-9 14-6 12-3zm2 28-12 2-13 5-10 7-10 10-9 16-3 10-1 7v16l3 14 8 16 9 10 12 9 11 5 8 2h23l10-3 12-6 11-9 8-10 7-14 3-12v-20l-4-14-6-12-9-11-11-9-12-6-7-2-9-1z"/>
    <path transform="translate(810,384)"
          d="m0 0 21 2 12 4 12 6 9 7 11 10 4 4v-29h28v177l-1 1h-26l-1-1v-28l-6 5-7 8-14 10-14 6-14 3-14 1-18-2-17-6-11-7-9-7-7-8-10-13-7-15-5-19-1-17 1-15 5-19 8-16 12-16 10-9 13-8 12-5 12-3zm2 28-12 2-11 4-11 7-3 2v2l-3 1-9 12-6 12-3 13v20l4 16 6 11 9 10 8 7 16 8 8 2h23l15-5 12-8 11-11 8-14 4-12 1-7v-14l-3-14-8-16-8-10-13-10-11-5-7-2-8-1z"/>
    <path transform="translate(2e3 263)" d="m0 0h27l1 1v300l-1 2h-26l-1-1z"/>
    <path transform="translate(1723,385)"
          d="m0 0h17l9 3v36l-4-2-9-4-4-1h-9l-11 4-10 9-7 11-5 12-2 8-1 9-1 95-1 1h-26l-1-1v-177h28l1 29 8-14 7-8 8-6z"/>
</svg>
